<svg class="w-full h-full object-contain" version="1.1" id="Layer_1" xmlns="http://www.w3.org/2000/svg" xmlns:xlink="http://www.w3.org/1999/xlink" x="0px" y="0px" viewBox="0 0 284.25 30" style="enable-background:new 0 0 284.25 30;" xml:space="preserve" width="285" height="30" fill="currentColor">
			<path d="M2.35,5.34c0-2.26,0-2.67-0.03-3.14C2.29,1.71,2.18,1.48,1.7,1.37C1.58,1.35,1.34,1.33,1.21,1.33
				c-0.06,0-0.12-0.03-0.12-0.09c0-0.09,0.07-0.12,0.23-0.12c0.65,0,1.57,0.04,1.64,0.04c0.1,0,2.99,0,3.32-0.01
				c0.28-0.01,0.51-0.04,0.62-0.07c0.07-0.01,0.13-0.07,0.2-0.07c0.04,0,0.06,0.06,0.06,0.13c0,0.1-0.07,0.28-0.12,0.68
				C7.04,1.97,7.01,2.61,6.98,2.78c-0.01,0.07-0.04,0.16-0.1,0.16c-0.09,0-0.12-0.07-0.12-0.19c0-0.1-0.01-0.35-0.09-0.52
				C6.57,2,6.43,1.82,5.65,1.74C5.4,1.71,3.82,1.69,3.66,1.69c-0.06,0-0.09,0.04-0.09,0.15v4.01c0,0.1,0.01,0.15,0.09,0.15
				c0.19,0,1.97,0,2.31-0.03c0.35-0.03,0.55-0.06,0.68-0.2c0.1-0.12,0.16-0.19,0.22-0.19c0.04,0,0.07,0.03,0.07,0.12
				c0,0.09-0.07,0.33-0.12,0.81C6.79,6.79,6.76,7.33,6.76,7.43c0,0.12,0,0.28-0.1,0.28c-0.07,0-0.1-0.06-0.1-0.13
				c0-0.14,0-0.29-0.06-0.48c-0.06-0.2-0.19-0.45-0.75-0.51C5.36,6.54,3.92,6.51,3.67,6.51c-0.07,0-0.1,0.04-0.1,0.1v1.28
				c0,0.49-0.01,2.18,0,2.48c0.04,1,0.26,1.19,1.68,1.19c0.38,0,1.02,0,1.39-0.16c0.38-0.16,0.55-0.45,0.65-1.05
				c0.03-0.16,0.06-0.22,0.13-0.22c0.09,0,0.09,0.12,0.09,0.22c0,0.12-0.12,1.1-0.19,1.41c-0.1,0.38-0.22,0.38-0.78,0.38
				c-2.19,0-3.16-0.09-3.58-0.09c-0.07,0-0.99,0.04-1.42,0.04c-0.16,0-0.23-0.03-0.23-0.12c0-0.04,0.03-0.09,0.12-0.09
				c0.13,0,0.3-0.03,0.44-0.06c0.29-0.06,0.36-0.38,0.42-0.8c0.07-0.61,0.07-1.76,0.07-3.15V5.34z"/>
			<path d="M11.79,5.34c0-2.26,0-2.67-0.03-3.14c-0.03-0.49-0.15-0.73-0.62-0.83c-0.12-0.03-0.36-0.04-0.49-0.04
				c-0.06,0-0.12-0.03-0.12-0.09c0-0.09,0.07-0.12,0.23-0.12c0.65,0,1.57,0.04,1.64,0.04c0.17,0,1.09-0.04,1.96-0.04
				c1.44,0,4.09-0.13,5.82,1.66c0.73,0.75,1.41,1.96,1.41,3.69c0,1.83-0.75,3.24-1.57,4.09c-0.62,0.65-1.93,1.67-4.4,1.67
				c-1.25,0-3.08-0.17-3.22-0.17c-0.07,0-0.99,0.04-1.42,0.04c-0.16,0-0.23-0.03-0.23-0.12c0-0.04,0.03-0.09,0.12-0.09
				c0.13,0,0.3-0.03,0.44-0.06c0.29-0.06,0.36-0.38,0.42-0.8c0.07-0.61,0.07-1.76,0.07-3.15V5.34z M13.01,6.9
				c0,1.54,0.01,2.87,0.03,3.15c0.01,0.36,0.04,0.94,0.16,1.1c0.19,0.28,0.75,0.58,2.47,0.58c1.35,0,2.6-0.49,3.45-1.35
				c0.75-0.74,1.16-2.13,1.16-3.47c0-1.84-0.8-3.03-1.39-3.66c-1.36-1.44-3.02-1.64-4.75-1.64c-0.29,0-0.83,0.04-0.94,0.1
				c-0.13,0.06-0.17,0.13-0.17,0.29c-0.01,0.49-0.01,1.97-0.01,3.09V6.9z"/>
			<path d="M34.68,10.1h0.06c0.39-1.34,1.73-5.54,2.24-7.4c0.14-0.54,0.16-0.74,0.16-0.93c0-0.26-0.16-0.44-0.83-0.44
				c-0.07,0-0.13-0.04-0.13-0.1c0-0.07,0.07-0.1,0.25-0.1c0.74,0,1.35,0.04,1.48,0.04c0.1,0,0.73-0.04,1.18-0.04
				c0.13,0,0.2,0.03,0.2,0.09c0,0.07-0.04,0.12-0.13,0.12c-0.06,0-0.33,0.01-0.49,0.07c-0.44,0.16-0.67,0.77-0.94,1.57
				c-0.64,1.84-2.1,6.46-2.67,8.08c-0.38,1.07-0.45,1.25-0.61,1.25c-0.14,0-0.23-0.19-0.44-0.76l-2.84-8.07h-0.03
				c-0.52,1.39-2.51,6.7-3.03,8.05c-0.23,0.61-0.3,0.77-0.48,0.77c-0.15,0-0.22-0.16-0.51-1.15l-2.58-8.61
				c-0.23-0.77-0.42-0.99-0.8-1.13c-0.19-0.07-0.55-0.09-0.65-0.09c-0.07,0-0.13-0.01-0.13-0.1c0-0.07,0.09-0.1,0.23-0.1
				c0.75,0,1.55,0.04,1.71,0.04c0.13,0,0.77-0.04,1.49-0.04c0.2,0,0.26,0.04,0.26,0.1c0,0.09-0.07,0.1-0.14,0.1
				c-0.12,0-0.39,0-0.57,0.09c-0.09,0.04-0.19,0.16-0.19,0.35c0,0.19,0.13,0.7,0.28,1.34c0.22,0.93,1.73,6.25,1.94,7.02h0.03
				l3.08-8.27c0.22-0.59,0.28-0.67,0.36-0.67c0.1,0,0.19,0.19,0.36,0.68L34.68,10.1z"/>
			<path d="M43.53,1.49c0.17-0.48,0.23-0.57,0.32-0.57c0.09,0,0.15,0.07,0.32,0.52c0.22,0.55,2.5,6.54,3.38,8.75
				c0.52,1.29,0.94,1.52,1.25,1.61c0.22,0.07,0.44,0.09,0.58,0.09c0.09,0,0.14,0.01,0.14,0.09c0,0.09-0.13,0.12-0.29,0.12
				c-0.22,0-1.28,0-2.28-0.03c-0.28-0.01-0.44-0.01-0.44-0.1c0-0.06,0.04-0.09,0.1-0.1c0.09-0.03,0.17-0.16,0.09-0.39l-1.35-3.57
				c-0.03-0.06-0.06-0.09-0.13-0.09h-3.12c-0.07,0-0.12,0.04-0.15,0.12l-0.87,2.57c-0.13,0.36-0.2,0.71-0.2,0.97
				c0,0.29,0.3,0.42,0.55,0.42h0.15c0.1,0,0.14,0.03,0.14,0.09c0,0.09-0.09,0.12-0.22,0.12c-0.35,0-0.97-0.04-1.13-0.04
				c-0.16,0-0.96,0.04-1.64,0.04c-0.19,0-0.28-0.03-0.28-0.12c0-0.06,0.06-0.09,0.13-0.09c0.1,0,0.3-0.01,0.42-0.03
				c0.67-0.09,0.96-0.64,1.22-1.36L43.53,1.49z M45.04,7.3c0.07,0,0.07-0.04,0.06-0.1l-1.38-3.92c-0.07-0.22-0.14-0.22-0.22,0
				l-1.28,3.92c-0.03,0.07,0,0.1,0.04,0.1H45.04z"/>
			<path d="M52.19,5.34c0-2.26,0-2.67-0.03-3.14c-0.03-0.49-0.15-0.73-0.62-0.83c-0.12-0.03-0.36-0.04-0.49-0.04
				c-0.06,0-0.12-0.03-0.12-0.09c0-0.09,0.07-0.12,0.23-0.12c0.65,0,1.57,0.04,1.64,0.04c0.16,0,1.26-0.04,1.71-0.04
				c0.91,0,1.89,0.09,2.66,0.64c0.36,0.26,1,0.97,1,1.97c0,1.07-0.45,2.15-1.76,3.35c1.19,1.52,2.18,2.82,3.02,3.72
				c0.78,0.83,1.41,0.99,1.77,1.04c0.28,0.04,0.48,0.04,0.57,0.04c0.07,0,0.13,0.04,0.13,0.09c0,0.09-0.09,0.12-0.35,0.12h-1.03
				c-0.81,0-1.18-0.07-1.55-0.28c-0.62-0.33-1.13-1.05-1.96-2.13c-0.61-0.8-1.29-1.77-1.58-2.15c-0.06-0.06-0.1-0.09-0.19-0.09
				l-1.78-0.03c-0.07,0-0.1,0.04-0.1,0.12v0.35c0,1.39,0,2.54,0.07,3.15c0.04,0.42,0.13,0.74,0.57,0.8c0.2,0.03,0.52,0.06,0.65,0.06
				c0.09,0,0.12,0.04,0.12,0.09c0,0.07-0.07,0.12-0.23,0.12c-0.8,0-1.71-0.04-1.79-0.04c-0.01,0-0.93,0.04-1.36,0.04
				c-0.16,0-0.23-0.03-0.23-0.12c0-0.04,0.03-0.09,0.12-0.09c0.13,0,0.3-0.03,0.44-0.06c0.29-0.06,0.36-0.38,0.42-0.8
				c0.07-0.61,0.07-1.76,0.07-3.15V5.34z M53.35,6.6c0,0.07,0.03,0.13,0.1,0.17c0.22,0.13,0.89,0.23,1.52,0.23
				c0.35,0,0.75-0.04,1.09-0.28c0.51-0.35,0.89-1.13,0.89-2.24c0-1.81-0.96-2.9-2.51-2.9c-0.44,0-0.83,0.04-0.97,0.09
				c-0.07,0.03-0.12,0.09-0.12,0.17V6.6z"/>
			<path d="M63.72,5.34c0-2.26,0-2.67-0.03-3.14c-0.03-0.49-0.15-0.73-0.62-0.83c-0.12-0.03-0.36-0.04-0.49-0.04
				c-0.06,0-0.12-0.03-0.12-0.09c0-0.09,0.07-0.12,0.23-0.12c0.65,0,1.57,0.04,1.64,0.04c0.17,0,1.09-0.04,1.96-0.04
				c1.44,0,4.09-0.13,5.82,1.66c0.73,0.75,1.41,1.96,1.41,3.69c0,1.83-0.75,3.24-1.57,4.09c-0.62,0.65-1.93,1.67-4.4,1.67
				c-1.25,0-3.08-0.17-3.22-0.17c-0.07,0-0.99,0.04-1.42,0.04c-0.16,0-0.23-0.03-0.23-0.12c0-0.04,0.03-0.09,0.12-0.09
				c0.13,0,0.3-0.03,0.44-0.06c0.29-0.06,0.36-0.38,0.42-0.8c0.07-0.61,0.07-1.76,0.07-3.15V5.34z M64.94,6.9
				c0,1.54,0.01,2.87,0.03,3.15c0.01,0.36,0.04,0.94,0.16,1.1c0.19,0.28,0.75,0.58,2.47,0.58c1.35,0,2.6-0.49,3.45-1.35
				c0.75-0.74,1.16-2.13,1.16-3.47c0-1.84-0.8-3.03-1.39-3.66c-1.36-1.44-3.02-1.64-4.75-1.64c-0.29,0-0.83,0.04-0.94,0.1
				c-0.13,0.06-0.17,0.13-0.17,0.29c-0.01,0.49-0.01,1.97-0.01,3.09V6.9z"/>
			<path d="M93.71,10.23c0.06,0.52,0.16,1.34,0.78,1.54c0.42,0.13,0.8,0.13,0.94,0.13c0.07,0,0.12,0.01,0.12,0.07
				c0,0.09-0.13,0.13-0.3,0.13c-0.32,0-1.89-0.04-2.42-0.09c-0.33-0.03-0.41-0.07-0.41-0.14c0-0.06,0.03-0.09,0.1-0.1
				c0.07-0.01,0.09-0.26,0.06-0.52l-0.7-7.49h-0.04l-3.56,7.55c-0.3,0.64-0.35,0.77-0.48,0.77c-0.1,0-0.17-0.15-0.45-0.67
				c-0.38-0.71-1.63-3.22-1.7-3.37c-0.13-0.26-1.76-3.74-1.92-4.14h-0.06l-0.58,6.73c-0.01,0.23-0.01,0.49-0.01,0.74
				c0,0.22,0.16,0.41,0.38,0.45c0.25,0.06,0.46,0.07,0.55,0.07c0.06,0,0.12,0.03,0.12,0.07c0,0.1-0.09,0.13-0.26,0.13
				c-0.54,0-1.23-0.04-1.35-0.04c-0.13,0-0.83,0.04-1.22,0.04c-0.15,0-0.25-0.03-0.25-0.13c0-0.04,0.07-0.07,0.15-0.07
				c0.12,0,0.22,0,0.44-0.04c0.48-0.09,0.52-0.65,0.58-1.2l1.05-9.46c0.03-0.16,0.07-0.26,0.16-0.26c0.09,0,0.14,0.06,0.22,0.22
				l4.44,9.13l4.27-9.11c0.06-0.13,0.12-0.23,0.22-0.23s0.15,0.12,0.17,0.39L93.71,10.23z"/>
			<path d="M97.17,11.26c0-0.33,0.23-0.8,0.8-0.8c0.45,0,0.8,0.29,0.8,0.75s-0.32,0.84-0.81,0.84
				C97.41,12.06,97.17,11.62,97.17,11.26z"/>
			<path d="M108.25,5.34c0-2.26,0-2.67-0.03-3.14c-0.03-0.49-0.15-0.73-0.62-0.83c-0.12-0.03-0.36-0.04-0.49-0.04
				c-0.06,0-0.12-0.03-0.12-0.09c0-0.09,0.07-0.12,0.23-0.12c0.65,0,1.51,0.04,1.6,0.04c0.13,0,0.97-0.04,1.41-0.04
				c0.16,0,0.23,0.03,0.23,0.12c0,0.06-0.06,0.09-0.12,0.09c-0.1,0-0.19,0.01-0.36,0.04c-0.39,0.07-0.51,0.32-0.54,0.83
				c-0.03,0.46-0.03,0.87-0.03,3.14v0.87h0.06c0.25-0.28,2.87-2.95,3.4-3.51c0.41-0.42,0.78-0.8,0.78-1.04
				c0-0.17-0.07-0.26-0.19-0.3c-0.07-0.03-0.13-0.06-0.13-0.12c0-0.07,0.07-0.1,0.17-0.1c0.29,0,0.74,0.04,1.09,0.04
				c0.07,0,1.03-0.04,1.39-0.04c0.16,0,0.22,0.03,0.22,0.1c0,0.07-0.03,0.1-0.14,0.1c-0.22,0-0.52,0.07-0.81,0.2
				c-0.59,0.26-0.91,0.62-1.57,1.25c-0.36,0.35-2.89,2.82-3.19,3.18c0.38,0.42,3.4,3.54,3.99,4.09c1.22,1.13,1.47,1.36,2.16,1.65
				c0.38,0.16,0.8,0.19,0.9,0.19c0.1,0,0.19,0.03,0.19,0.09c0,0.07-0.07,0.12-0.32,0.12h-0.74c-0.41,0-0.68,0-1-0.03
				c-0.77-0.07-1.13-0.39-1.76-0.89c-0.65-0.54-3.73-3.86-4.43-4.72h-0.07v1.42c0,1.39,0,2.54,0.07,3.15
				c0.04,0.42,0.13,0.74,0.57,0.8c0.2,0.03,0.44,0.06,0.57,0.06c0.09,0,0.12,0.04,0.12,0.09c0,0.07-0.07,0.12-0.23,0.12
				c-0.71,0-1.55-0.04-1.67-0.04c-0.12,0-0.96,0.04-1.39,0.04c-0.16,0-0.23-0.03-0.23-0.12c0-0.04,0.03-0.09,0.12-0.09
				c0.13,0,0.3-0.03,0.44-0.06c0.29-0.06,0.36-0.38,0.42-0.8c0.07-0.61,0.07-1.76,0.07-3.15V5.34z"/>
			<path d="M119.75,5.34c0-2.26,0-2.67-0.03-3.14c-0.03-0.49-0.15-0.73-0.62-0.83c-0.12-0.03-0.36-0.04-0.49-0.04
				c-0.06,0-0.12-0.03-0.12-0.09c0-0.09,0.07-0.12,0.23-0.12c0.65,0,1.57,0.04,1.64,0.04c0.1,0,2.99,0,3.32-0.01
				c0.28-0.01,0.51-0.04,0.62-0.07c0.07-0.01,0.13-0.07,0.2-0.07c0.04,0,0.06,0.06,0.06,0.13c0,0.1-0.07,0.28-0.12,0.68
				c-0.01,0.15-0.04,0.78-0.07,0.96c-0.01,0.07-0.04,0.16-0.1,0.16c-0.09,0-0.12-0.07-0.12-0.19c0-0.1-0.01-0.35-0.09-0.52
				c-0.1-0.23-0.25-0.41-1.03-0.49c-0.25-0.03-1.83-0.04-1.99-0.04c-0.06,0-0.09,0.04-0.09,0.15v4.01c0,0.1,0.01,0.15,0.09,0.15
				c0.19,0,1.97,0,2.31-0.03c0.35-0.03,0.55-0.06,0.68-0.2c0.1-0.12,0.16-0.19,0.22-0.19c0.04,0,0.07,0.03,0.07,0.12
				c0,0.09-0.07,0.33-0.12,0.81c-0.03,0.29-0.06,0.83-0.06,0.93c0,0.12,0,0.28-0.1,0.28c-0.07,0-0.1-0.06-0.1-0.13
				c0-0.14,0-0.29-0.06-0.48c-0.06-0.2-0.19-0.45-0.75-0.51c-0.39-0.04-1.83-0.07-2.08-0.07c-0.07,0-0.1,0.04-0.1,0.1v1.28
				c0,0.49-0.01,2.18,0,2.48c0.04,1,0.26,1.19,1.68,1.19c0.38,0,1.02,0,1.39-0.16c0.38-0.16,0.55-0.45,0.65-1.05
				c0.03-0.16,0.06-0.22,0.13-0.22c0.09,0,0.09,0.12,0.09,0.22c0,0.12-0.12,1.1-0.19,1.41c-0.1,0.38-0.22,0.38-0.78,0.38
				c-2.19,0-3.16-0.09-3.58-0.09c-0.07,0-0.99,0.04-1.42,0.04c-0.16,0-0.23-0.03-0.23-0.12c0-0.04,0.03-0.09,0.12-0.09
				c0.13,0,0.3-0.03,0.44-0.06c0.29-0.06,0.36-0.38,0.42-0.8c0.07-0.61,0.07-1.76,0.07-3.15V5.34z"/>
			<path d="M129.58,10.13c0.03,1.19,0.17,1.57,0.57,1.68c0.28,0.07,0.6,0.09,0.73,0.09c0.07,0,0.12,0.03,0.12,0.09
				c0,0.09-0.09,0.12-0.26,0.12c-0.83,0-1.41-0.04-1.54-0.04s-0.74,0.04-1.39,0.04c-0.14,0-0.23-0.01-0.23-0.12
				c0-0.06,0.04-0.09,0.12-0.09c0.12,0,0.38-0.01,0.59-0.09c0.36-0.1,0.44-0.52,0.44-1.84l0.01-8.32c0-0.57,0.04-0.73,0.16-0.73
				c0.12,0,0.36,0.32,0.51,0.46c0.22,0.25,2.38,2.58,4.62,4.98c1.44,1.54,3.02,3.31,3.48,3.79l-0.16-7.37
				c-0.01-0.94-0.12-1.26-0.57-1.38c-0.26-0.06-0.6-0.07-0.71-0.07c-0.1,0-0.12-0.04-0.12-0.1c0-0.09,0.12-0.1,0.29-0.1
				c0.65,0,1.35,0.04,1.51,0.04c0.16,0,0.64-0.04,1.23-0.04c0.16,0,0.26,0.01,0.26,0.1c0,0.06-0.06,0.1-0.16,0.1
				c-0.07,0-0.17,0-0.35,0.04c-0.48,0.1-0.54,0.42-0.54,1.29l-0.03,8.5c0,0.96-0.03,1.03-0.13,1.03c-0.12,0-0.29-0.16-1.06-0.93
				c-0.16-0.15-2.25-2.28-3.79-3.93c-1.68-1.81-3.32-3.64-3.79-4.16L129.58,10.13z"/>
			<path d="M143.91,10.13c0.03,1.19,0.17,1.57,0.57,1.68c0.28,0.07,0.59,0.09,0.73,0.09c0.07,0,0.12,0.03,0.12,0.09
				c0,0.09-0.09,0.12-0.26,0.12c-0.83,0-1.41-0.04-1.54-0.04s-0.74,0.04-1.39,0.04c-0.15,0-0.23-0.01-0.23-0.12
				c0-0.06,0.04-0.09,0.12-0.09c0.12,0,0.38-0.01,0.6-0.09c0.36-0.1,0.44-0.52,0.44-1.84l0.01-8.32c0-0.57,0.04-0.73,0.16-0.73
				c0.12,0,0.36,0.32,0.51,0.46c0.22,0.25,2.38,2.58,4.62,4.98c1.44,1.54,3.02,3.31,3.48,3.79l-0.16-7.37
				c-0.01-0.94-0.12-1.26-0.57-1.38c-0.26-0.06-0.59-0.07-0.71-0.07c-0.1,0-0.12-0.04-0.12-0.1c0-0.09,0.12-0.1,0.29-0.1
				c0.65,0,1.35,0.04,1.51,0.04c0.16,0,0.64-0.04,1.23-0.04c0.16,0,0.26,0.01,0.26,0.1c0,0.06-0.06,0.1-0.16,0.1
				c-0.07,0-0.17,0-0.35,0.04c-0.48,0.1-0.54,0.42-0.54,1.29l-0.03,8.5c0,0.96-0.03,1.03-0.13,1.03c-0.12,0-0.29-0.16-1.06-0.93
				c-0.16-0.15-2.25-2.28-3.79-3.93c-1.68-1.81-3.32-3.64-3.79-4.16L143.91,10.13z"/>
			<path d="M157.86,5.34c0-2.26,0-2.67-0.03-3.14c-0.03-0.49-0.15-0.73-0.62-0.83c-0.12-0.03-0.36-0.04-0.49-0.04
				c-0.06,0-0.12-0.03-0.12-0.09c0-0.09,0.07-0.12,0.23-0.12c0.65,0,1.57,0.04,1.64,0.04c0.1,0,2.99,0,3.32-0.01
				c0.28-0.01,0.51-0.04,0.62-0.07c0.07-0.01,0.13-0.07,0.2-0.07c0.04,0,0.06,0.06,0.06,0.13c0,0.1-0.07,0.28-0.12,0.68
				c-0.01,0.15-0.04,0.78-0.07,0.96c-0.02,0.07-0.04,0.16-0.1,0.16c-0.09,0-0.12-0.07-0.12-0.19c0-0.1-0.01-0.35-0.09-0.52
				c-0.1-0.23-0.25-0.41-1.03-0.49c-0.25-0.03-1.83-0.04-1.99-0.04c-0.06,0-0.09,0.04-0.09,0.15v4.01c0,0.1,0.02,0.15,0.09,0.15
				c0.19,0,1.97,0,2.31-0.03c0.35-0.03,0.55-0.06,0.68-0.2c0.1-0.12,0.16-0.19,0.22-0.19c0.04,0,0.07,0.03,0.07,0.12
				c0,0.09-0.07,0.33-0.12,0.81c-0.03,0.29-0.06,0.83-0.06,0.93c0,0.12,0,0.28-0.1,0.28c-0.07,0-0.1-0.06-0.1-0.13
				c0-0.14,0-0.29-0.06-0.48c-0.06-0.2-0.19-0.45-0.75-0.51c-0.39-0.04-1.83-0.07-2.08-0.07c-0.07,0-0.1,0.04-0.1,0.1v1.28
				c0,0.49-0.01,2.18,0,2.48c0.04,1,0.26,1.19,1.68,1.19c0.38,0,1.02,0,1.39-0.16c0.38-0.16,0.55-0.45,0.65-1.05
				c0.03-0.16,0.06-0.22,0.13-0.22c0.09,0,0.09,0.12,0.09,0.22c0,0.12-0.12,1.1-0.19,1.41c-0.1,0.38-0.22,0.38-0.78,0.38
				c-2.19,0-3.16-0.09-3.58-0.09c-0.07,0-0.99,0.04-1.42,0.04c-0.16,0-0.23-0.03-0.23-0.12c0-0.04,0.03-0.09,0.12-0.09
				c0.13,0,0.3-0.03,0.43-0.06c0.29-0.06,0.36-0.38,0.42-0.8c0.07-0.61,0.07-1.76,0.07-3.15V5.34z"/>
			<path d="M167.29,5.34c0-2.26,0-2.67-0.03-3.14c-0.03-0.49-0.15-0.73-0.62-0.83c-0.12-0.03-0.36-0.04-0.49-0.04
				c-0.06,0-0.12-0.03-0.12-0.09c0-0.09,0.07-0.12,0.23-0.12c0.65,0,1.57,0.04,1.64,0.04c0.17,0,1.09-0.04,1.96-0.04
				c1.44,0,4.09-0.13,5.82,1.66c0.73,0.75,1.41,1.96,1.41,3.69c0,1.83-0.75,3.24-1.57,4.09c-0.62,0.65-1.93,1.67-4.4,1.67
				c-1.25,0-3.08-0.17-3.22-0.17c-0.07,0-0.99,0.04-1.42,0.04c-0.16,0-0.23-0.03-0.23-0.12c0-0.04,0.03-0.09,0.12-0.09
				c0.13,0,0.3-0.03,0.44-0.06c0.29-0.06,0.36-0.38,0.42-0.8c0.07-0.61,0.07-1.76,0.07-3.15V5.34z M168.51,6.9
				c0,1.54,0.01,2.87,0.03,3.15c0.02,0.36,0.04,0.94,0.16,1.1c0.19,0.28,0.75,0.58,2.47,0.58c1.35,0,2.6-0.49,3.45-1.35
				c0.76-0.74,1.16-2.13,1.16-3.47c0-1.84-0.8-3.03-1.39-3.66c-1.36-1.44-3.02-1.64-4.75-1.64c-0.29,0-0.83,0.04-0.94,0.1
				c-0.13,0.06-0.17,0.13-0.17,0.29c-0.01,0.49-0.01,1.97-0.01,3.09V6.9z"/>
			<path d="M182.8,8.34c0-0.78-0.15-1.1-0.33-1.52c-0.1-0.23-2.05-3.43-2.55-4.18c-0.36-0.54-0.73-0.9-0.99-1.07
				c-0.22-0.14-0.49-0.23-0.62-0.23c-0.07,0-0.14-0.03-0.14-0.1c0-0.06,0.06-0.1,0.19-0.1c0.28,0,1.36,0.04,1.44,0.04
				c0.1,0,0.65-0.04,1.22-0.04c0.16,0,0.19,0.04,0.19,0.1c0,0.06-0.09,0.07-0.22,0.13c-0.12,0.06-0.19,0.15-0.19,0.26
				c0,0.17,0.07,0.35,0.19,0.57c0.23,0.42,2.41,4.16,2.67,4.59c0.28-0.61,2.12-3.79,2.41-4.27c0.19-0.3,0.25-0.55,0.25-0.74
				c0-0.2-0.06-0.36-0.23-0.41c-0.13-0.04-0.22-0.07-0.22-0.14c0-0.06,0.09-0.09,0.23-0.09c0.38,0,0.84,0.04,0.96,0.04
				c0.09,0,1.13-0.04,1.41-0.04c0.1,0,0.19,0.03,0.19,0.09c0,0.07-0.07,0.12-0.19,0.12c-0.16,0-0.43,0.06-0.67,0.2
				c-0.29,0.17-0.45,0.35-0.77,0.74c-0.48,0.58-2.51,3.99-2.77,4.62c-0.22,0.52-0.22,0.97-0.22,1.45v1.25c0,0.23,0,0.84,0.04,1.45
				c0.03,0.42,0.16,0.74,0.6,0.8c0.2,0.03,0.52,0.06,0.65,0.06c0.09,0,0.12,0.04,0.12,0.09c0,0.07-0.07,0.12-0.23,0.12
				c-0.8,0-1.71-0.04-1.79-0.04c-0.07,0-0.99,0.04-1.42,0.04c-0.16,0-0.23-0.03-0.23-0.12c0-0.04,0.03-0.09,0.12-0.09
				c0.13,0,0.3-0.03,0.43-0.06c0.29-0.06,0.42-0.38,0.45-0.8c0.04-0.61,0.04-1.22,0.04-1.45V8.34z"/>
			<path d="M197.79,7.89c0,1.39,0,2.54,0.07,3.15c0.04,0.42,0.13,0.74,0.56,0.8c0.2,0.03,0.52,0.06,0.65,0.06
				c0.09,0,0.12,0.04,0.12,0.09c0,0.07-0.07,0.12-0.23,0.12c-0.8,0-1.71-0.04-1.79-0.04c-0.07,0-0.99,0.04-1.42,0.04
				c-0.16,0-0.23-0.03-0.23-0.12c0-0.04,0.03-0.09,0.12-0.09c0.13,0,0.3-0.03,0.44-0.06c0.29-0.06,0.36-0.38,0.42-0.8
				c0.07-0.61,0.07-1.76,0.07-3.15V5.34c0-2.26,0-2.67-0.03-3.14c-0.03-0.49-0.17-0.74-0.49-0.81c-0.16-0.04-0.35-0.06-0.45-0.06
				c-0.06,0-0.12-0.03-0.12-0.09c0-0.09,0.07-0.12,0.23-0.12c0.48,0,1.39,0.04,1.47,0.04c0.07,0,0.99-0.04,1.42-0.04
				c0.16,0,0.23,0.03,0.23,0.12c0,0.06-0.06,0.09-0.12,0.09c-0.1,0-0.19,0.01-0.36,0.04c-0.39,0.07-0.51,0.32-0.54,0.83
				c-0.03,0.46-0.03,0.87-0.03,3.14V7.89z"/>
			<path d="M203.93,10.13c0.03,1.19,0.17,1.57,0.57,1.68c0.28,0.07,0.59,0.09,0.73,0.09c0.07,0,0.12,0.03,0.12,0.09
				c0,0.09-0.09,0.12-0.26,0.12c-0.83,0-1.41-0.04-1.54-0.04c-0.13,0-0.74,0.04-1.39,0.04c-0.15,0-0.23-0.01-0.23-0.12
				c0-0.06,0.04-0.09,0.12-0.09c0.12,0,0.38-0.01,0.59-0.09c0.36-0.1,0.44-0.52,0.44-1.84l0.01-8.32c0-0.57,0.04-0.73,0.16-0.73
				c0.12,0,0.36,0.32,0.51,0.46c0.22,0.25,2.38,2.58,4.62,4.98c1.44,1.54,3.02,3.31,3.48,3.79l-0.16-7.37
				c-0.01-0.94-0.12-1.26-0.56-1.38c-0.26-0.06-0.6-0.07-0.71-0.07c-0.1,0-0.12-0.04-0.12-0.1c0-0.09,0.12-0.1,0.29-0.1
				c0.65,0,1.35,0.04,1.51,0.04c0.16,0,0.64-0.04,1.23-0.04c0.16,0,0.26,0.01,0.26,0.1c0,0.06-0.06,0.1-0.16,0.1
				c-0.07,0-0.17,0-0.35,0.04c-0.48,0.1-0.54,0.42-0.54,1.29l-0.03,8.5c0,0.96-0.03,1.03-0.13,1.03c-0.12,0-0.29-0.16-1.06-0.93
				c-0.16-0.15-2.25-2.28-3.79-3.93c-1.68-1.81-3.32-3.64-3.79-4.16L203.93,10.13z"/>
			<path d="M216.94,11.91c-0.2-0.1-0.22-0.16-0.22-0.55c0-0.73,0.06-1.31,0.07-1.54c0.01-0.16,0.04-0.23,0.12-0.23
				c0.09,0,0.1,0.04,0.1,0.16c0,0.13,0,0.33,0.04,0.54c0.22,1.07,1.18,1.48,2.15,1.48c1.39,0,2.08-1,2.08-1.93
				c0-1-0.42-1.58-1.67-2.61l-0.65-0.54c-1.54-1.26-1.89-2.16-1.89-3.15c0-1.55,1.16-2.61,3.01-2.61c0.56,0,0.99,0.06,1.35,0.14
				c0.28,0.06,0.39,0.07,0.51,0.07c0.12,0,0.14,0.03,0.14,0.1c0,0.07-0.06,0.55-0.06,1.54c0,0.23-0.03,0.33-0.1,0.33
				c-0.09,0-0.1-0.07-0.12-0.19c-0.02-0.17-0.1-0.57-0.19-0.73c-0.09-0.16-0.48-0.77-1.81-0.77c-1,0-1.78,0.62-1.78,1.68
				c0,0.83,0.41,1.32,1.77,2.44l0.41,0.32c1.71,1.35,2.12,2.25,2.12,3.41c0,0.59-0.23,1.7-1.23,2.41c-0.62,0.44-1.41,0.61-2.19,0.61
				C218.2,12.3,217.53,12.2,216.94,11.91z"/>
			<path d="M229.82,7.89c0,1.39,0,2.54,0.07,3.15c0.04,0.42,0.13,0.74,0.56,0.8c0.2,0.03,0.52,0.06,0.65,0.06
				c0.09,0,0.12,0.04,0.12,0.09c0,0.07-0.07,0.12-0.23,0.12c-0.8,0-1.71-0.04-1.78-0.04c-0.07,0-0.99,0.04-1.42,0.04
				c-0.16,0-0.23-0.03-0.23-0.12c0-0.04,0.03-0.09,0.12-0.09c0.13,0,0.3-0.03,0.44-0.06c0.29-0.06,0.36-0.38,0.42-0.8
				c0.07-0.61,0.07-1.76,0.07-3.15V1.75l-2.15,0.03c-0.9,0.01-1.25,0.12-1.48,0.46c-0.16,0.25-0.2,0.35-0.25,0.45
				c-0.04,0.12-0.09,0.15-0.15,0.15c-0.04,0-0.07-0.04-0.07-0.13c0-0.15,0.29-1.39,0.32-1.51c0.03-0.09,0.09-0.28,0.15-0.28
				c0.1,0,0.25,0.14,0.64,0.17c0.42,0.04,0.97,0.07,1.15,0.07h5.44c0.93,0,1.32-0.15,1.44-0.15c0.07,0,0.07,0.09,0.07,0.17
				c0,0.44-0.05,1.44-0.05,1.6c0,0.13-0.04,0.19-0.1,0.19c-0.07,0-0.1-0.04-0.12-0.25l-0.01-0.16c-0.06-0.44-0.39-0.77-1.78-0.8
				l-1.83-0.03V7.89z"/>
			<path d="M238.56,7.89c0,1.39,0,2.54,0.07,3.15c0.04,0.42,0.13,0.74,0.56,0.8c0.2,0.03,0.52,0.06,0.65,0.06
				c0.09,0,0.12,0.04,0.12,0.09c0,0.07-0.07,0.12-0.23,0.12c-0.8,0-1.71-0.04-1.79-0.04c-0.07,0-0.99,0.04-1.42,0.04
				c-0.16,0-0.23-0.03-0.23-0.12c0-0.04,0.03-0.09,0.12-0.09c0.13,0,0.3-0.03,0.44-0.06c0.29-0.06,0.36-0.38,0.42-0.8
				c0.07-0.61,0.07-1.76,0.07-3.15V5.34c0-2.26,0-2.67-0.03-3.14c-0.03-0.49-0.17-0.74-0.49-0.81c-0.16-0.04-0.35-0.06-0.45-0.06
				c-0.06,0-0.12-0.03-0.12-0.09c0-0.09,0.07-0.12,0.23-0.12c0.48,0,1.39,0.04,1.47,0.04c0.07,0,0.99-0.04,1.42-0.04
				c0.16,0,0.23,0.03,0.23,0.12c0,0.06-0.06,0.09-0.12,0.09c-0.1,0-0.19,0.01-0.36,0.04c-0.39,0.07-0.51,0.32-0.54,0.83
				c-0.03,0.46-0.03,0.87-0.03,3.14V7.89z"/>
			<path d="M247.4,7.89c0,1.39,0,2.54,0.07,3.15c0.04,0.42,0.13,0.74,0.57,0.8c0.2,0.03,0.52,0.06,0.65,0.06
				c0.09,0,0.12,0.04,0.12,0.09c0,0.07-0.07,0.12-0.23,0.12c-0.8,0-1.71-0.04-1.79-0.04c-0.07,0-0.99,0.04-1.42,0.04
				c-0.16,0-0.23-0.03-0.23-0.12c0-0.04,0.03-0.09,0.12-0.09c0.13,0,0.3-0.03,0.44-0.06c0.29-0.06,0.36-0.38,0.42-0.8
				c0.07-0.61,0.07-1.76,0.07-3.15V1.75l-2.15,0.03c-0.9,0.01-1.25,0.12-1.48,0.46c-0.16,0.25-0.2,0.35-0.25,0.45
				c-0.04,0.12-0.09,0.15-0.15,0.15c-0.04,0-0.07-0.04-0.07-0.13c0-0.15,0.29-1.39,0.32-1.51c0.03-0.09,0.09-0.28,0.14-0.28
				c0.1,0,0.25,0.14,0.64,0.17c0.42,0.04,0.97,0.07,1.15,0.07h5.44c0.93,0,1.32-0.15,1.44-0.15c0.07,0,0.07,0.09,0.07,0.17
				c0,0.44-0.04,1.44-0.04,1.6c0,0.13-0.04,0.19-0.1,0.19c-0.07,0-0.1-0.04-0.12-0.25l-0.02-0.16c-0.06-0.44-0.39-0.77-1.78-0.8
				l-1.83-0.03V7.89z"/>
			<path d="M254.08,5.34c0-2.26,0-2.67-0.03-3.14c-0.03-0.49-0.14-0.73-0.62-0.83c-0.12-0.03-0.36-0.04-0.49-0.04
				c-0.06,0-0.12-0.03-0.12-0.09c0-0.09,0.07-0.12,0.23-0.12c0.65,0,1.54,0.04,1.67,0.04c0.13,0,1-0.04,1.44-0.04
				c0.16,0,0.23,0.03,0.23,0.12c0,0.06-0.06,0.09-0.12,0.09c-0.1,0-0.19,0.01-0.36,0.04c-0.39,0.06-0.51,0.32-0.54,0.83
				c-0.03,0.46-0.03,0.87-0.03,3.14v2.03c0,2.09,0.46,2.99,1.09,3.58c0.71,0.67,1.36,0.8,2.19,0.8c0.89,0,1.76-0.42,2.28-1.04
				c0.67-0.83,0.84-2.06,0.84-3.56V5.34c0-2.26,0-2.67-0.03-3.14c-0.03-0.49-0.14-0.73-0.62-0.83c-0.12-0.03-0.36-0.04-0.49-0.04
				c-0.06,0-0.12-0.03-0.12-0.09c0-0.09,0.07-0.12,0.23-0.12c0.65,0,1.45,0.04,1.54,0.04c0.1,0,0.78-0.04,1.22-0.04
				c0.16,0,0.23,0.03,0.23,0.12c0,0.06-0.06,0.09-0.12,0.09c-0.1,0-0.19,0-0.36,0.04c-0.39,0.07-0.51,0.32-0.54,0.83
				c-0.03,0.46-0.03,0.87-0.03,3.14v1.55c0,1.57-0.17,3.31-1.34,4.34c-1.04,0.93-2.13,1.07-2.99,1.07c-0.49,0-1.96-0.06-2.99-1.03
				c-0.71-0.68-1.26-1.7-1.26-3.82V5.34z"/>
			<path d="M270.65,7.89c0,1.39,0,2.54,0.07,3.15c0.04,0.42,0.13,0.74,0.57,0.8c0.2,0.03,0.52,0.06,0.65,0.06
				c0.09,0,0.12,0.04,0.12,0.09c0,0.07-0.07,0.12-0.23,0.12c-0.8,0-1.71-0.04-1.78-0.04c-0.07,0-0.99,0.04-1.42,0.04
				c-0.16,0-0.23-0.03-0.23-0.12c0-0.04,0.03-0.09,0.12-0.09c0.13,0,0.3-0.03,0.43-0.06c0.29-0.06,0.36-0.38,0.42-0.8
				c0.07-0.61,0.07-1.76,0.07-3.15V1.75l-2.15,0.03c-0.9,0.01-1.25,0.12-1.48,0.46c-0.16,0.25-0.2,0.35-0.25,0.45
				c-0.04,0.12-0.09,0.15-0.14,0.15c-0.04,0-0.07-0.04-0.07-0.13c0-0.15,0.29-1.39,0.32-1.51c0.03-0.09,0.09-0.28,0.15-0.28
				c0.1,0,0.25,0.14,0.64,0.17c0.42,0.04,0.97,0.07,1.15,0.07h5.44c0.93,0,1.32-0.15,1.44-0.15c0.07,0,0.07,0.09,0.07,0.17
				c0,0.44-0.04,1.44-0.04,1.6c0,0.13-0.04,0.19-0.1,0.19c-0.07,0-0.1-0.04-0.12-0.25l-0.01-0.16c-0.06-0.44-0.39-0.77-1.79-0.8
				l-1.83-0.03V7.89z"/>
			<path d="M278.17,5.34c0-2.26,0-2.67-0.03-3.14c-0.03-0.49-0.15-0.73-0.62-0.83c-0.12-0.03-0.36-0.04-0.49-0.04
				c-0.06,0-0.12-0.03-0.12-0.09c0-0.09,0.07-0.12,0.23-0.12c0.65,0,1.57,0.04,1.64,0.04c0.1,0,2.99,0,3.32-0.01
				c0.28-0.01,0.51-0.04,0.62-0.07c0.07-0.01,0.13-0.07,0.2-0.07c0.04,0,0.06,0.06,0.06,0.13c0,0.1-0.07,0.28-0.12,0.68
				c-0.01,0.15-0.04,0.78-0.07,0.96c-0.01,0.07-0.04,0.16-0.1,0.16c-0.09,0-0.12-0.07-0.12-0.19c0-0.1-0.01-0.35-0.09-0.52
				c-0.1-0.23-0.25-0.41-1.03-0.49c-0.25-0.03-1.83-0.04-1.99-0.04c-0.06,0-0.09,0.04-0.09,0.15v4.01c0,0.1,0.01,0.15,0.09,0.15
				c0.19,0,1.97,0,2.31-0.03c0.35-0.03,0.55-0.06,0.68-0.2c0.1-0.12,0.16-0.19,0.22-0.19c0.04,0,0.07,0.03,0.07,0.12
				c0,0.09-0.07,0.33-0.12,0.81c-0.03,0.29-0.06,0.83-0.06,0.93c0,0.12,0,0.28-0.1,0.28c-0.07,0-0.1-0.06-0.1-0.13
				c0-0.14,0-0.29-0.06-0.48c-0.06-0.2-0.19-0.45-0.75-0.51c-0.39-0.04-1.83-0.07-2.08-0.07c-0.07,0-0.1,0.04-0.1,0.1v1.28
				c0,0.49-0.01,2.18,0,2.48c0.04,1,0.26,1.19,1.68,1.19c0.38,0,1.02,0,1.39-0.16c0.38-0.16,0.55-0.45,0.65-1.05
				c0.03-0.16,0.06-0.22,0.13-0.22c0.09,0,0.09,0.12,0.09,0.22c0,0.12-0.12,1.1-0.19,1.41c-0.1,0.38-0.22,0.38-0.78,0.38
				c-2.19,0-3.16-0.09-3.59-0.09c-0.07,0-0.99,0.04-1.42,0.04c-0.16,0-0.23-0.03-0.23-0.12c0-0.04,0.03-0.09,0.12-0.09
				c0.13,0,0.3-0.03,0.43-0.06c0.29-0.06,0.36-0.38,0.42-0.8c0.07-0.61,0.07-1.76,0.07-3.15V5.34z"/>
			<path d="M50.16,24.52c0-1.51,0-1.78-0.02-2.09c-0.02-0.33-0.1-0.48-0.42-0.55c-0.08-0.02-0.24-0.03-0.33-0.03
				c-0.04,0-0.08-0.02-0.08-0.06c0-0.06,0.05-0.08,0.15-0.08c0.44,0,1.05,0.03,1.09,0.03c0.19,0,2.16,0,2.38-0.01
				c0.18-0.01,0.34-0.01,0.43-0.04c0.06-0.02,0.1-0.06,0.14-0.06c0.04,0,0.06,0.04,0.06,0.09c0,0.07-0.05,0.18-0.08,0.45
				c-0.01,0.1-0.03,0.52-0.05,0.64c-0.01,0.05-0.03,0.11-0.08,0.11c-0.05,0-0.07-0.05-0.07-0.12c0-0.08-0.03-0.24-0.09-0.37
				c-0.06-0.13-0.28-0.3-0.66-0.31l-1.49-0.03c-0.06,0-0.09,0.03-0.09,0.11v2.67c0,0.06,0.01,0.09,0.07,0.09l1.24-0.01
				c0.16,0,0.3,0,0.44-0.01c0.23-0.02,0.36-0.05,0.44-0.17c0.04-0.05,0.07-0.1,0.11-0.1c0.04,0,0.05,0.03,0.05,0.08
				c0,0.06-0.05,0.22-0.08,0.54c-0.02,0.19-0.04,0.58-0.04,0.65c0,0.09,0,0.18-0.07,0.18c-0.05,0-0.07-0.04-0.07-0.09
				c-0.01-0.1-0.02-0.23-0.06-0.35c-0.05-0.14-0.2-0.31-0.5-0.35c-0.24-0.03-1.3-0.03-1.46-0.03c-0.05,0-0.07,0.02-0.07,0.09v0.82
				c0,0.93,0,1.69,0.05,2.1c0.03,0.28,0.09,0.49,0.38,0.53c0.14,0.02,0.35,0.04,0.44,0.04c0.06,0,0.08,0.03,0.08,0.06
				c0,0.05-0.05,0.08-0.15,0.08c-0.53,0-1.14-0.03-1.19-0.03c-0.05,0-0.66,0.03-0.95,0.03c-0.11,0-0.15-0.02-0.15-0.08
				c0-0.03,0.02-0.06,0.08-0.06c0.09,0,0.2-0.02,0.29-0.04c0.19-0.04,0.24-0.25,0.28-0.53c0.05-0.41,0.05-1.17,0.05-2.1V24.52z"/>
			<path d="M59.08,21.58c2.18,0,3.8,1.37,3.8,3.63c0,2.17-1.53,3.96-3.86,3.96c-2.65,0-3.75-2.06-3.75-3.8
				C55.27,23.79,56.41,21.58,59.08,21.58z M59.29,28.79c0.87,0,2.67-0.5,2.67-3.32c0-2.32-1.41-3.57-2.94-3.57
				c-1.62,0-2.82,1.06-2.82,3.18C56.19,27.34,57.54,28.79,59.29,28.79z"/>
			<path d="M65.43,24.52c0-1.51,0-1.78-0.02-2.09c-0.02-0.33-0.1-0.48-0.42-0.55c-0.08-0.02-0.24-0.03-0.33-0.03
				c-0.04,0-0.08-0.02-0.08-0.06c0-0.06,0.05-0.08,0.15-0.08c0.44,0,1.05,0.03,1.09,0.03c0.11,0,0.84-0.03,1.14-0.03
				c0.61,0,1.26,0.06,1.77,0.43c0.24,0.17,0.67,0.65,0.67,1.32c0,0.72-0.3,1.43-1.17,2.24c0.79,1.02,1.45,1.88,2.01,2.48
				c0.52,0.55,0.94,0.66,1.18,0.7c0.18,0.03,0.32,0.03,0.38,0.03c0.05,0,0.09,0.03,0.09,0.06c0,0.06-0.06,0.08-0.23,0.08h-0.69
				c-0.54,0-0.78-0.05-1.04-0.18c-0.42-0.22-0.75-0.7-1.31-1.42c-0.41-0.53-0.86-1.18-1.05-1.43c-0.04-0.04-0.07-0.06-0.13-0.06
				l-1.19-0.02c-0.05,0-0.07,0.03-0.07,0.08v0.23c0,0.93,0,1.69,0.05,2.1c0.03,0.28,0.09,0.49,0.38,0.53
				c0.14,0.02,0.35,0.04,0.44,0.04c0.06,0,0.08,0.03,0.08,0.06c0,0.05-0.05,0.08-0.15,0.08c-0.53,0-1.14-0.03-1.19-0.03
				c-0.01,0-0.62,0.03-0.91,0.03c-0.11,0-0.15-0.02-0.15-0.08c0-0.03,0.02-0.06,0.08-0.06c0.09,0,0.2-0.02,0.29-0.04
				c0.19-0.04,0.24-0.25,0.28-0.53c0.05-0.41,0.05-1.17,0.05-2.1V24.52z M66.2,25.36c0,0.05,0.02,0.09,0.07,0.12
				c0.15,0.09,0.59,0.15,1.02,0.15c0.23,0,0.5-0.03,0.73-0.18c0.34-0.23,0.59-0.75,0.59-1.49c0-1.21-0.64-1.94-1.67-1.94
				c-0.29,0-0.55,0.03-0.65,0.06c-0.05,0.02-0.08,0.06-0.08,0.12V25.36z"/>
			<path d="M78.9,26.22c0,0.93,0,1.69,0.05,2.1c0.03,0.28,0.09,0.49,0.38,0.53c0.14,0.02,0.35,0.04,0.44,0.04
				c0.06,0,0.08,0.03,0.08,0.06c0,0.05-0.05,0.08-0.15,0.08c-0.53,0-1.14-0.03-1.19-0.03c-0.05,0-0.66,0.03-0.95,0.03
				c-0.11,0-0.15-0.02-0.15-0.08c0-0.03,0.02-0.06,0.08-0.06c0.09,0,0.2-0.02,0.29-0.04c0.19-0.04,0.24-0.25,0.28-0.53
				c0.05-0.41,0.05-1.17,0.05-2.1v-4.09l-1.43,0.02c-0.6,0.01-0.83,0.08-0.99,0.31c-0.11,0.16-0.14,0.23-0.16,0.3
				c-0.03,0.08-0.06,0.1-0.1,0.1c-0.03,0-0.05-0.03-0.05-0.09c0-0.1,0.19-0.93,0.21-1.01c0.02-0.06,0.06-0.18,0.1-0.18
				c0.07,0,0.16,0.1,0.43,0.12c0.28,0.03,0.65,0.05,0.76,0.05h3.63c0.62,0,0.88-0.1,0.96-0.1c0.05,0,0.05,0.06,0.05,0.12
				c0,0.29-0.03,0.96-0.03,1.06c0,0.09-0.03,0.13-0.07,0.13c-0.05,0-0.07-0.03-0.08-0.16l-0.01-0.11c-0.04-0.29-0.26-0.51-1.19-0.53
				l-1.22-0.02V26.22z"/>
			<path d="M89.86,26.22c0,0.93,0,1.69,0.05,2.1c0.03,0.28,0.09,0.49,0.38,0.53c0.14,0.02,0.35,0.04,0.44,0.04
				c0.06,0,0.08,0.03,0.08,0.06c0,0.05-0.05,0.08-0.15,0.08c-0.53,0-1.14-0.03-1.19-0.03c-0.05,0-0.66,0.03-0.95,0.03
				c-0.11,0-0.15-0.02-0.15-0.08c0-0.03,0.02-0.06,0.08-0.06c0.09,0,0.2-0.02,0.29-0.04c0.19-0.04,0.24-0.25,0.28-0.53
				c0.05-0.41,0.05-1.17,0.05-2.1V25.2c0-0.04-0.03-0.06-0.06-0.06h-4.1c-0.03,0-0.06,0.01-0.06,0.06v1.02c0,0.93,0,1.69,0.05,2.1
				c0.03,0.28,0.09,0.49,0.38,0.53c0.14,0.02,0.35,0.04,0.44,0.04c0.06,0,0.08,0.03,0.08,0.06c0,0.05-0.05,0.08-0.15,0.08
				c-0.53,0-1.14-0.03-1.19-0.03c-0.05,0-0.66,0.03-0.95,0.03c-0.11,0-0.15-0.02-0.15-0.08c0-0.03,0.02-0.06,0.08-0.06
				c0.09,0,0.2-0.02,0.29-0.04c0.19-0.04,0.24-0.25,0.28-0.53c0.05-0.41,0.05-1.17,0.05-2.1v-1.7c0-1.51,0-1.78-0.02-2.09
				c-0.02-0.33-0.1-0.48-0.42-0.55c-0.08-0.02-0.24-0.03-0.33-0.03c-0.04,0-0.08-0.02-0.08-0.06c0-0.06,0.05-0.08,0.15-0.08
				c0.44,0,1.05,0.03,1.09,0.03c0.05,0,0.66-0.03,0.95-0.03c0.11,0,0.15,0.02,0.15,0.08c0,0.04-0.04,0.06-0.08,0.06
				c-0.07,0-0.13,0.01-0.24,0.03c-0.26,0.05-0.34,0.21-0.36,0.55c-0.02,0.31-0.02,0.58-0.02,2.09v0.2c0,0.05,0.03,0.06,0.06,0.06
				h4.1c0.03,0,0.06-0.01,0.06-0.06v-0.2c0-1.51,0-1.78-0.02-2.09c-0.02-0.33-0.1-0.48-0.42-0.55c-0.08-0.02-0.24-0.03-0.33-0.03
				c-0.04,0-0.08-0.02-0.08-0.06c0-0.06,0.05-0.08,0.15-0.08c0.44,0,1.05,0.03,1.09,0.03c0.05,0,0.66-0.03,0.95-0.03
				c0.11,0,0.15,0.02,0.15,0.08c0,0.04-0.04,0.06-0.08,0.06c-0.07,0-0.13,0.01-0.24,0.03c-0.26,0.05-0.34,0.21-0.36,0.55
				c-0.02,0.31-0.02,0.58-0.02,2.09V26.22z"/>
			<path d="M93.79,24.52c0-1.51,0-1.78-0.02-2.09c-0.02-0.33-0.1-0.48-0.42-0.55c-0.08-0.02-0.24-0.03-0.33-0.03
				c-0.04,0-0.08-0.02-0.08-0.06c0-0.06,0.05-0.08,0.15-0.08c0.44,0,1.05,0.03,1.09,0.03c0.07,0,1.99,0,2.22-0.01
				c0.18-0.01,0.34-0.03,0.42-0.05c0.05-0.01,0.09-0.05,0.14-0.05c0.03,0,0.04,0.04,0.04,0.09c0,0.07-0.05,0.18-0.08,0.45
				c-0.01,0.1-0.03,0.52-0.05,0.64c-0.01,0.05-0.03,0.11-0.07,0.11c-0.06,0-0.08-0.05-0.08-0.13c0-0.07-0.01-0.23-0.06-0.35
				c-0.07-0.15-0.16-0.27-0.69-0.33c-0.16-0.02-1.22-0.03-1.33-0.03c-0.04,0-0.06,0.03-0.06,0.1v2.67c0,0.07,0.01,0.1,0.06,0.1
				c0.13,0,1.32,0,1.54-0.02c0.23-0.02,0.37-0.04,0.45-0.14c0.07-0.08,0.11-0.13,0.14-0.13c0.03,0,0.05,0.02,0.05,0.08
				c0,0.06-0.05,0.22-0.08,0.54c-0.02,0.19-0.04,0.55-0.04,0.62c0,0.08,0,0.18-0.07,0.18c-0.05,0-0.07-0.04-0.07-0.09
				c0-0.1,0-0.19-0.04-0.32c-0.04-0.14-0.13-0.3-0.5-0.34c-0.26-0.03-1.22-0.05-1.38-0.05c-0.05,0-0.07,0.03-0.07,0.07v0.85
				c0,0.33-0.01,1.45,0,1.65c0.03,0.67,0.17,0.79,1.12,0.79c0.25,0,0.68,0,0.93-0.11c0.25-0.11,0.37-0.3,0.44-0.7
				c0.02-0.11,0.04-0.15,0.09-0.15c0.06,0,0.06,0.08,0.06,0.15c0,0.08-0.08,0.74-0.13,0.94c-0.07,0.25-0.14,0.25-0.52,0.25
				c-1.46,0-2.11-0.06-2.39-0.06c-0.05,0-0.66,0.03-0.95,0.03c-0.11,0-0.15-0.02-0.15-0.08c0-0.03,0.02-0.06,0.08-0.06
				c0.09,0,0.2-0.02,0.29-0.04c0.19-0.04,0.24-0.25,0.28-0.53c0.05-0.41,0.05-1.17,0.05-2.1V24.52z"/>
			<path d="M103.25,24.52c0-1.51,0-1.78-0.02-2.09c-0.02-0.33-0.1-0.48-0.42-0.55c-0.08-0.02-0.24-0.03-0.33-0.03
				c-0.04,0-0.08-0.02-0.08-0.06c0-0.06,0.05-0.08,0.15-0.08c0.44,0,1.03,0.03,1.11,0.03c0.09,0,0.67-0.03,0.96-0.03
				c0.11,0,0.15,0.02,0.15,0.08c0,0.04-0.04,0.06-0.08,0.06c-0.07,0-0.13,0.01-0.24,0.03c-0.26,0.04-0.34,0.21-0.36,0.55
				c-0.02,0.31-0.02,0.58-0.02,2.09v1.35c0,1.39,0.31,1.99,0.73,2.39c0.47,0.44,0.91,0.53,1.46,0.53c0.59,0,1.17-0.28,1.52-0.7
				c0.45-0.55,0.56-1.37,0.56-2.37v-1.21c0-1.51,0-1.78-0.02-2.09c-0.02-0.33-0.1-0.48-0.42-0.55c-0.08-0.02-0.24-0.03-0.33-0.03
				c-0.04,0-0.08-0.02-0.08-0.06c0-0.06,0.05-0.08,0.15-0.08c0.44,0,0.97,0.03,1.03,0.03c0.07,0,0.52-0.03,0.81-0.03
				c0.11,0,0.15,0.02,0.15,0.08c0,0.04-0.04,0.06-0.08,0.06c-0.07,0-0.13,0-0.24,0.03c-0.26,0.05-0.34,0.21-0.36,0.55
				c-0.02,0.31-0.02,0.58-0.02,2.09v1.04c0,1.05-0.12,2.21-0.89,2.89c-0.7,0.62-1.42,0.72-1.99,0.72c-0.33,0-1.31-0.04-1.99-0.69
				c-0.47-0.45-0.84-1.13-0.84-2.54V24.52z"/>
			<path d="M112.59,27.71c0.02,0.79,0.12,1.05,0.38,1.12c0.18,0.05,0.4,0.06,0.48,0.06c0.05,0,0.08,0.02,0.08,0.06
				c0,0.06-0.06,0.08-0.17,0.08c-0.55,0-0.94-0.03-1.03-0.03c-0.09,0-0.49,0.03-0.93,0.03c-0.1,0-0.15-0.01-0.15-0.08
				c0-0.04,0.03-0.06,0.08-0.06c0.08,0,0.25-0.01,0.4-0.06c0.24-0.07,0.29-0.35,0.29-1.23l0.01-5.54c0-0.38,0.03-0.48,0.11-0.48
				c0.08,0,0.24,0.21,0.34,0.31c0.15,0.16,1.59,1.72,3.08,3.32c0.96,1.03,2.01,2.21,2.32,2.53l-0.11-4.92
				c-0.01-0.63-0.08-0.84-0.38-0.92c-0.17-0.04-0.4-0.05-0.47-0.05c-0.07,0-0.08-0.03-0.08-0.07c0-0.06,0.08-0.07,0.19-0.07
				c0.43,0,0.9,0.03,1.01,0.03c0.11,0,0.43-0.03,0.82-0.03c0.11,0,0.17,0.01,0.17,0.07c0,0.04-0.04,0.07-0.11,0.07
				c-0.05,0-0.12,0-0.23,0.03c-0.32,0.07-0.36,0.28-0.36,0.86l-0.02,5.67c0,0.64-0.02,0.69-0.09,0.69c-0.08,0-0.19-0.11-0.71-0.62
				c-0.11-0.1-1.5-1.52-2.53-2.62c-1.12-1.21-2.22-2.43-2.53-2.78L112.59,27.71z"/>
			<path d="M122.79,26.22c0,0.93,0,1.69,0.05,2.1c0.03,0.28,0.09,0.49,0.38,0.53c0.14,0.02,0.35,0.04,0.44,0.04
				c0.06,0,0.08,0.03,0.08,0.06c0,0.05-0.05,0.08-0.15,0.08c-0.53,0-1.14-0.03-1.19-0.03c-0.05,0-0.66,0.03-0.95,0.03
				c-0.11,0-0.15-0.02-0.15-0.08c0-0.03,0.02-0.06,0.08-0.06c0.09,0,0.2-0.02,0.29-0.04c0.19-0.04,0.24-0.25,0.28-0.53
				c0.05-0.41,0.05-1.17,0.05-2.1v-1.7c0-1.51,0-1.78-0.02-2.09c-0.02-0.33-0.12-0.49-0.33-0.54c-0.11-0.03-0.23-0.04-0.3-0.04
				c-0.04,0-0.08-0.02-0.08-0.06c0-0.06,0.05-0.08,0.15-0.08c0.32,0,0.93,0.03,0.98,0.03c0.05,0,0.66-0.03,0.95-0.03
				c0.11,0,0.15,0.02,0.15,0.08c0,0.04-0.04,0.06-0.08,0.06c-0.07,0-0.13,0.01-0.24,0.03c-0.26,0.05-0.34,0.21-0.36,0.55
				c-0.02,0.31-0.02,0.58-0.02,2.09V26.22z"/>
			<path d="M128.78,26.22c0,0.93,0,1.69,0.05,2.1c0.03,0.28,0.09,0.49,0.38,0.53c0.14,0.02,0.35,0.04,0.44,0.04
				c0.06,0,0.08,0.03,0.08,0.06c0,0.05-0.05,0.08-0.15,0.08c-0.53,0-1.14-0.03-1.19-0.03c-0.05,0-0.66,0.03-0.95,0.03
				c-0.11,0-0.15-0.02-0.15-0.08c0-0.03,0.02-0.06,0.08-0.06c0.09,0,0.2-0.02,0.29-0.04c0.19-0.04,0.24-0.25,0.28-0.53
				c0.05-0.41,0.05-1.17,0.05-2.1v-4.09l-1.43,0.02c-0.6,0.01-0.83,0.08-0.99,0.31c-0.11,0.16-0.14,0.23-0.16,0.3
				c-0.03,0.08-0.06,0.1-0.1,0.1c-0.03,0-0.05-0.03-0.05-0.09c0-0.1,0.19-0.93,0.21-1.01c0.02-0.06,0.06-0.18,0.1-0.18
				c0.07,0,0.16,0.1,0.43,0.12c0.28,0.03,0.65,0.05,0.76,0.05h3.63c0.62,0,0.88-0.1,0.96-0.1c0.05,0,0.05,0.06,0.05,0.12
				c0,0.29-0.03,0.96-0.03,1.06c0,0.09-0.03,0.13-0.07,0.13c-0.05,0-0.07-0.03-0.08-0.16l-0.01-0.11c-0.04-0.29-0.26-0.51-1.19-0.53
				l-1.22-0.02V26.22z"/>
			<path d="M133.9,24.52c0-1.51,0-1.78-0.02-2.09c-0.02-0.33-0.1-0.48-0.42-0.55c-0.08-0.02-0.24-0.03-0.33-0.03
				c-0.04,0-0.08-0.02-0.08-0.06c0-0.06,0.05-0.08,0.15-0.08c0.44,0,1.05,0.03,1.09,0.03c0.07,0,1.99,0,2.22-0.01
				c0.18-0.01,0.34-0.03,0.42-0.05c0.05-0.01,0.09-0.05,0.14-0.05c0.03,0,0.04,0.04,0.04,0.09c0,0.07-0.05,0.18-0.08,0.45
				c-0.01,0.1-0.03,0.52-0.05,0.64c-0.01,0.05-0.03,0.11-0.07,0.11c-0.06,0-0.08-0.05-0.08-0.13c0-0.07-0.01-0.23-0.06-0.35
				c-0.07-0.15-0.16-0.27-0.69-0.33c-0.16-0.02-1.22-0.03-1.33-0.03c-0.04,0-0.06,0.03-0.06,0.1v2.67c0,0.07,0.01,0.1,0.06,0.1
				c0.13,0,1.32,0,1.54-0.02c0.23-0.02,0.37-0.04,0.45-0.14c0.07-0.08,0.11-0.13,0.14-0.13c0.03,0,0.05,0.02,0.05,0.08
				c0,0.06-0.05,0.22-0.08,0.54c-0.02,0.19-0.04,0.55-0.04,0.62c0,0.08,0,0.18-0.07,0.18c-0.05,0-0.07-0.04-0.07-0.09
				c0-0.1,0-0.19-0.04-0.32c-0.04-0.14-0.13-0.3-0.5-0.34c-0.26-0.03-1.22-0.05-1.38-0.05c-0.05,0-0.07,0.03-0.07,0.07v0.85
				c0,0.33-0.01,1.45,0,1.65c0.03,0.67,0.17,0.79,1.12,0.79c0.25,0,0.68,0,0.93-0.11s0.37-0.3,0.44-0.7
				c0.02-0.11,0.04-0.15,0.09-0.15c0.06,0,0.06,0.08,0.06,0.15c0,0.08-0.08,0.74-0.13,0.94c-0.07,0.25-0.14,0.25-0.52,0.25
				c-1.46,0-2.11-0.06-2.39-0.06c-0.05,0-0.66,0.03-0.95,0.03c-0.11,0-0.15-0.02-0.15-0.08c0-0.03,0.02-0.06,0.08-0.06
				c0.09,0,0.2-0.02,0.29-0.04c0.19-0.04,0.24-0.25,0.28-0.53c0.05-0.41,0.05-1.17,0.05-2.1V24.52z"/>
			<path d="M140.29,24.52c0-1.51,0-1.78-0.02-2.09c-0.02-0.33-0.1-0.48-0.42-0.55c-0.08-0.02-0.24-0.03-0.33-0.03
				c-0.04,0-0.08-0.02-0.08-0.06c0-0.06,0.05-0.08,0.15-0.08c0.44,0,1.05,0.03,1.09,0.03c0.12,0,0.73-0.03,1.31-0.03
				c0.96,0,2.73-0.09,3.88,1.1c0.48,0.5,0.94,1.31,0.94,2.46c0,1.22-0.5,2.16-1.05,2.73c-0.42,0.44-1.29,1.11-2.93,1.11
				c-0.83,0-2.05-0.12-2.15-0.12c-0.05,0-0.66,0.03-0.95,0.03c-0.11,0-0.15-0.02-0.15-0.08c0-0.03,0.02-0.06,0.08-0.06
				c0.09,0,0.2-0.02,0.29-0.04c0.19-0.04,0.24-0.25,0.28-0.53c0.05-0.41,0.05-1.17,0.05-2.1V24.52z M141.1,25.56
				c0,1.03,0.01,1.92,0.02,2.1c0.01,0.24,0.03,0.63,0.11,0.74c0.13,0.18,0.5,0.39,1.64,0.39c0.9,0,1.73-0.33,2.3-0.9
				c0.5-0.49,0.77-1.42,0.77-2.31c0-1.23-0.53-2.02-0.93-2.44c-0.91-0.96-2.01-1.09-3.16-1.09c-0.19,0-0.55,0.03-0.63,0.07
				c-0.09,0.04-0.12,0.09-0.12,0.19c-0.01,0.33-0.01,1.32-0.01,2.06V25.56z"/>
			<path d="M152.66,28.9c-0.14-0.07-0.15-0.11-0.15-0.37c0-0.48,0.04-0.87,0.05-1.03c0.01-0.11,0.03-0.15,0.08-0.15
				c0.06,0,0.07,0.03,0.07,0.11c0,0.09,0,0.22,0.03,0.36c0.14,0.72,0.78,0.99,1.43,0.99c0.93,0,1.38-0.67,1.38-1.29
				c0-0.67-0.28-1.05-1.11-1.74L154,25.42c-1.03-0.84-1.26-1.44-1.26-2.1c0-1.04,0.77-1.74,2-1.74c0.38,0,0.66,0.04,0.9,0.1
				c0.18,0.04,0.26,0.05,0.34,0.05c0.08,0,0.1,0.02,0.1,0.07c0,0.05-0.04,0.37-0.04,1.03c0,0.15-0.02,0.22-0.07,0.22
				c-0.06,0-0.07-0.05-0.08-0.13c-0.01-0.12-0.07-0.38-0.13-0.48c-0.06-0.11-0.32-0.51-1.21-0.51c-0.67,0-1.19,0.42-1.19,1.12
				c0,0.55,0.27,0.88,1.18,1.63l0.27,0.21c1.14,0.9,1.41,1.5,1.41,2.27c0,0.4-0.16,1.13-0.82,1.61c-0.42,0.29-0.94,0.41-1.46,0.41
				C153.5,29.16,153.05,29.09,152.66,28.9z"/>
			<path d="M161.34,26.22c0,0.93,0,1.69,0.05,2.1c0.03,0.28,0.09,0.49,0.38,0.53c0.13,0.02,0.35,0.04,0.43,0.04
				c0.06,0,0.08,0.03,0.08,0.06c0,0.05-0.05,0.08-0.16,0.08c-0.53,0-1.14-0.03-1.19-0.03c-0.05,0-0.66,0.03-0.95,0.03
				c-0.11,0-0.15-0.02-0.15-0.08c0-0.03,0.02-0.06,0.08-0.06c0.09,0,0.2-0.02,0.29-0.04c0.19-0.04,0.24-0.25,0.28-0.53
				c0.05-0.41,0.05-1.17,0.05-2.1v-4.09l-1.43,0.02c-0.6,0.01-0.83,0.08-0.99,0.31c-0.11,0.16-0.13,0.23-0.16,0.3
				c-0.03,0.08-0.06,0.1-0.1,0.1c-0.03,0-0.05-0.03-0.05-0.09c0-0.1,0.19-0.93,0.21-1.01c0.02-0.06,0.06-0.18,0.1-0.18
				c0.07,0,0.17,0.1,0.43,0.12c0.28,0.03,0.65,0.05,0.76,0.05h3.63c0.62,0,0.88-0.1,0.96-0.1c0.05,0,0.05,0.06,0.05,0.12
				c0,0.29-0.03,0.96-0.03,1.06c0,0.09-0.03,0.13-0.07,0.13c-0.05,0-0.07-0.03-0.08-0.16l-0.01-0.11c-0.04-0.29-0.26-0.51-1.19-0.53
				l-1.22-0.02V26.22z"/>
			<path d="M167.41,21.95c0.12-0.32,0.16-0.38,0.21-0.38c0.06,0,0.1,0.05,0.21,0.35c0.15,0.37,1.67,4.36,2.25,5.83
				c0.35,0.86,0.63,1.02,0.83,1.07c0.15,0.05,0.29,0.06,0.39,0.06c0.06,0,0.1,0.01,0.1,0.06c0,0.06-0.09,0.08-0.19,0.08
				c-0.14,0-0.85,0-1.52-0.02c-0.18-0.01-0.29-0.01-0.29-0.07c0-0.04,0.03-0.06,0.07-0.07c0.06-0.02,0.12-0.11,0.06-0.26l-0.9-2.38
				c-0.02-0.04-0.04-0.06-0.09-0.06h-2.08c-0.05,0-0.08,0.03-0.1,0.08l-0.58,1.71c-0.09,0.24-0.14,0.47-0.14,0.65
				c0,0.19,0.2,0.28,0.37,0.28h0.1c0.07,0,0.1,0.02,0.1,0.06c0,0.06-0.06,0.08-0.15,0.08c-0.23,0-0.65-0.03-0.75-0.03
				s-0.64,0.03-1.09,0.03c-0.13,0-0.18-0.02-0.18-0.08c0-0.04,0.04-0.06,0.09-0.06c0.07,0,0.2-0.01,0.28-0.02
				c0.44-0.06,0.64-0.43,0.81-0.91L167.41,21.95z M168.42,25.82c0.05,0,0.05-0.03,0.04-0.07l-0.92-2.61c-0.05-0.14-0.1-0.14-0.15,0
				l-0.85,2.61c-0.02,0.05,0,0.07,0.03,0.07H168.42z"/>
			<path d="M174.66,26.22c0,0.93,0,1.69,0.05,2.1c0.03,0.28,0.09,0.49,0.38,0.53c0.13,0.02,0.35,0.04,0.43,0.04
				c0.06,0,0.08,0.03,0.08,0.06c0,0.05-0.05,0.08-0.15,0.08c-0.53,0-1.14-0.03-1.19-0.03c-0.05,0-0.66,0.03-0.95,0.03
				c-0.11,0-0.16-0.02-0.16-0.08c0-0.03,0.02-0.06,0.08-0.06c0.09,0,0.2-0.02,0.29-0.04c0.19-0.04,0.24-0.25,0.28-0.53
				c0.05-0.41,0.05-1.17,0.05-2.1v-4.09l-1.43,0.02c-0.6,0.01-0.83,0.08-0.99,0.31c-0.11,0.16-0.14,0.23-0.16,0.3
				c-0.03,0.08-0.06,0.1-0.1,0.1c-0.03,0-0.05-0.03-0.05-0.09c0-0.1,0.19-0.93,0.21-1.01c0.02-0.06,0.06-0.18,0.1-0.18
				c0.07,0,0.16,0.1,0.43,0.12c0.28,0.03,0.65,0.05,0.76,0.05h3.63c0.62,0,0.88-0.1,0.96-0.1c0.05,0,0.05,0.06,0.05,0.12
				c0,0.29-0.03,0.96-0.03,1.06c0,0.09-0.03,0.13-0.07,0.13c-0.05,0-0.07-0.03-0.08-0.16l-0.01-0.11c-0.04-0.29-0.26-0.51-1.19-0.53
				l-1.22-0.02V26.22z"/>
			<path d="M179.78,24.52c0-1.51,0-1.78-0.02-2.09c-0.02-0.33-0.1-0.48-0.42-0.55c-0.08-0.02-0.24-0.03-0.33-0.03
				c-0.04,0-0.08-0.02-0.08-0.06c0-0.06,0.05-0.08,0.15-0.08c0.44,0,1.05,0.03,1.09,0.03c0.07,0,1.99,0,2.21-0.01
				c0.18-0.01,0.34-0.03,0.42-0.05c0.05-0.01,0.09-0.05,0.14-0.05c0.03,0,0.04,0.04,0.04,0.09c0,0.07-0.05,0.18-0.08,0.45
				c-0.01,0.1-0.03,0.52-0.05,0.64c-0.01,0.05-0.03,0.11-0.07,0.11c-0.06,0-0.08-0.05-0.08-0.13c0-0.07-0.01-0.23-0.06-0.35
				c-0.07-0.15-0.17-0.27-0.69-0.33c-0.16-0.02-1.22-0.03-1.33-0.03c-0.04,0-0.06,0.03-0.06,0.1v2.67c0,0.07,0.01,0.1,0.06,0.1
				c0.13,0,1.32,0,1.54-0.02c0.23-0.02,0.37-0.04,0.46-0.14c0.07-0.08,0.11-0.13,0.14-0.13c0.03,0,0.05,0.02,0.05,0.08
				c0,0.06-0.05,0.22-0.08,0.54c-0.02,0.19-0.04,0.55-0.04,0.62c0,0.08,0,0.18-0.07,0.18c-0.05,0-0.07-0.04-0.07-0.09
				c0-0.1,0-0.19-0.04-0.32c-0.04-0.14-0.13-0.3-0.5-0.34c-0.26-0.03-1.22-0.05-1.38-0.05c-0.05,0-0.07,0.03-0.07,0.07v0.85
				c0,0.33-0.01,1.45,0,1.65c0.03,0.67,0.17,0.79,1.12,0.79c0.25,0,0.68,0,0.93-0.11c0.25-0.11,0.37-0.3,0.43-0.7
				c0.02-0.11,0.04-0.15,0.09-0.15c0.06,0,0.06,0.08,0.06,0.15c0,0.08-0.08,0.74-0.13,0.94c-0.07,0.25-0.14,0.25-0.52,0.25
				c-1.46,0-2.11-0.06-2.39-0.06c-0.05,0-0.66,0.03-0.95,0.03c-0.11,0-0.16-0.02-0.16-0.08c0-0.03,0.02-0.06,0.08-0.06
				c0.09,0,0.2-0.02,0.29-0.04c0.19-0.04,0.24-0.25,0.28-0.53c0.05-0.41,0.05-1.17,0.05-2.1V24.52z"/>
			<path d="M185.54,28.9c-0.13-0.07-0.14-0.11-0.14-0.37c0-0.48,0.04-0.87,0.05-1.03c0.01-0.11,0.03-0.15,0.08-0.15
				c0.06,0,0.07,0.03,0.07,0.11c0,0.09,0,0.22,0.03,0.36c0.14,0.72,0.78,0.99,1.43,0.99c0.93,0,1.38-0.67,1.38-1.29
				c0-0.67-0.28-1.05-1.11-1.74l-0.44-0.36c-1.03-0.84-1.26-1.44-1.26-2.1c0-1.04,0.77-1.74,2-1.74c0.38,0,0.66,0.04,0.9,0.1
				c0.18,0.04,0.26,0.05,0.34,0.05c0.08,0,0.1,0.02,0.1,0.07c0,0.05-0.04,0.37-0.04,1.03c0,0.15-0.02,0.22-0.07,0.22
				c-0.06,0-0.07-0.05-0.08-0.13c-0.01-0.12-0.07-0.38-0.13-0.48c-0.06-0.11-0.32-0.51-1.21-0.51c-0.67,0-1.19,0.42-1.19,1.12
				c0,0.55,0.27,0.88,1.18,1.63l0.27,0.21c1.14,0.9,1.41,1.5,1.41,2.27c0,0.4-0.16,1.13-0.82,1.61c-0.42,0.29-0.94,0.41-1.46,0.41
				C186.39,29.16,185.94,29.09,185.54,28.9z"/>
			<path d="M195.18,28.9c-0.14-0.07-0.15-0.11-0.15-0.37c0-0.48,0.04-0.87,0.05-1.03c0.01-0.11,0.03-0.15,0.08-0.15
				c0.06,0,0.07,0.03,0.07,0.11c0,0.09,0,0.22,0.03,0.36c0.15,0.72,0.78,0.99,1.43,0.99c0.93,0,1.38-0.67,1.38-1.29
				c0-0.67-0.28-1.05-1.11-1.74l-0.43-0.36c-1.03-0.84-1.26-1.44-1.26-2.1c0-1.04,0.77-1.74,2-1.74c0.38,0,0.66,0.04,0.9,0.1
				c0.18,0.04,0.26,0.05,0.34,0.05c0.08,0,0.1,0.02,0.1,0.07c0,0.05-0.04,0.37-0.04,1.03c0,0.15-0.02,0.22-0.07,0.22
				c-0.06,0-0.07-0.05-0.08-0.13c-0.01-0.12-0.07-0.38-0.13-0.48c-0.06-0.11-0.32-0.51-1.21-0.51c-0.67,0-1.19,0.42-1.19,1.12
				c0,0.55,0.27,0.88,1.18,1.63l0.27,0.21c1.14,0.9,1.41,1.5,1.41,2.27c0,0.4-0.15,1.13-0.82,1.61c-0.42,0.29-0.94,0.41-1.46,0.41
				C196.02,29.16,195.57,29.09,195.18,28.9z"/>
			<path d="M201.8,24.52c0-1.51,0-1.78-0.02-2.09c-0.02-0.33-0.1-0.48-0.42-0.55c-0.08-0.02-0.24-0.03-0.33-0.03
				c-0.04,0-0.08-0.02-0.08-0.06c0-0.06,0.05-0.08,0.16-0.08c0.43,0,1.04,0.03,1.09,0.03c0.07,0,1.99,0,2.22-0.01
				c0.18-0.01,0.34-0.03,0.42-0.05c0.05-0.01,0.09-0.05,0.13-0.05c0.03,0,0.04,0.04,0.04,0.09c0,0.07-0.05,0.18-0.08,0.45
				c-0.01,0.1-0.03,0.52-0.05,0.64c-0.01,0.05-0.03,0.11-0.07,0.11c-0.06,0-0.08-0.05-0.08-0.13c0-0.07-0.01-0.23-0.06-0.35
				c-0.07-0.15-0.16-0.27-0.69-0.33c-0.17-0.02-1.22-0.03-1.33-0.03c-0.04,0-0.06,0.03-0.06,0.1v2.67c0,0.07,0.01,0.1,0.06,0.1
				c0.13,0,1.32,0,1.54-0.02c0.23-0.02,0.37-0.04,0.45-0.14c0.07-0.08,0.11-0.13,0.15-0.13c0.03,0,0.05,0.02,0.05,0.08
				c0,0.06-0.05,0.22-0.08,0.54c-0.02,0.19-0.04,0.55-0.04,0.62c0,0.08,0,0.18-0.07,0.18c-0.05,0-0.07-0.04-0.07-0.09
				c0-0.1,0-0.19-0.04-0.32c-0.04-0.14-0.13-0.3-0.5-0.34c-0.26-0.03-1.22-0.05-1.38-0.05c-0.05,0-0.07,0.03-0.07,0.07v0.85
				c0,0.33-0.01,1.45,0,1.65c0.03,0.67,0.17,0.79,1.12,0.79c0.25,0,0.68,0,0.93-0.11c0.25-0.11,0.37-0.3,0.44-0.7
				c0.02-0.11,0.04-0.15,0.09-0.15c0.06,0,0.06,0.08,0.06,0.15c0,0.08-0.08,0.74-0.13,0.94c-0.07,0.25-0.15,0.25-0.52,0.25
				c-1.46,0-2.11-0.06-2.39-0.06c-0.05,0-0.66,0.03-0.95,0.03c-0.11,0-0.15-0.02-0.15-0.08c0-0.03,0.02-0.06,0.08-0.06
				c0.09,0,0.2-0.02,0.29-0.04c0.19-0.04,0.24-0.25,0.28-0.53c0.05-0.41,0.05-1.17,0.05-2.1V24.52z"/>
			<path d="M208.45,27.71c0.02,0.79,0.12,1.05,0.38,1.12c0.18,0.05,0.4,0.06,0.48,0.06c0.05,0,0.08,0.02,0.08,0.06
				c0,0.06-0.06,0.08-0.17,0.08c-0.55,0-0.94-0.03-1.03-0.03c-0.09,0-0.49,0.03-0.93,0.03c-0.1,0-0.16-0.01-0.16-0.08
				c0-0.04,0.03-0.06,0.08-0.06c0.08,0,0.25-0.01,0.4-0.06c0.24-0.07,0.29-0.35,0.29-1.23l0.01-5.54c0-0.38,0.03-0.48,0.11-0.48
				c0.08,0,0.24,0.21,0.34,0.31c0.15,0.16,1.59,1.72,3.08,3.32c0.96,1.03,2.01,2.21,2.32,2.53l-0.11-4.92
				c-0.01-0.63-0.08-0.84-0.38-0.92c-0.17-0.04-0.4-0.05-0.48-0.05c-0.07,0-0.08-0.03-0.08-0.07c0-0.06,0.08-0.07,0.19-0.07
				c0.43,0,0.9,0.03,1.01,0.03c0.11,0,0.43-0.03,0.82-0.03c0.11,0,0.17,0.01,0.17,0.07c0,0.04-0.04,0.07-0.11,0.07
				c-0.05,0-0.12,0-0.23,0.03c-0.32,0.07-0.36,0.28-0.36,0.86l-0.02,5.67c0,0.64-0.02,0.69-0.09,0.69c-0.08,0-0.19-0.11-0.71-0.62
				c-0.11-0.1-1.5-1.52-2.53-2.62c-1.12-1.21-2.22-2.43-2.53-2.78L208.45,27.71z"/>
			<path d="M219.23,21.95c0.12-0.32,0.15-0.38,0.21-0.38c0.06,0,0.1,0.05,0.21,0.35c0.15,0.37,1.66,4.36,2.25,5.83
				c0.35,0.86,0.63,1.02,0.83,1.07c0.14,0.05,0.29,0.06,0.39,0.06c0.06,0,0.1,0.01,0.1,0.06c0,0.06-0.09,0.08-0.19,0.08
				c-0.15,0-0.85,0-1.52-0.02c-0.18-0.01-0.29-0.01-0.29-0.07c0-0.04,0.03-0.06,0.07-0.07c0.06-0.02,0.12-0.11,0.06-0.26l-0.9-2.38
				c-0.02-0.04-0.04-0.06-0.09-0.06h-2.08c-0.05,0-0.08,0.03-0.1,0.08l-0.58,1.71c-0.09,0.24-0.13,0.47-0.13,0.65
				c0,0.19,0.2,0.28,0.37,0.28h0.1c0.07,0,0.1,0.02,0.1,0.06c0,0.06-0.06,0.08-0.14,0.08c-0.23,0-0.65-0.03-0.76-0.03
				c-0.11,0-0.64,0.03-1.09,0.03c-0.13,0-0.18-0.02-0.18-0.08c0-0.04,0.04-0.06,0.09-0.06c0.07,0,0.2-0.01,0.28-0.02
				c0.44-0.06,0.64-0.43,0.81-0.91L219.23,21.95z M220.24,25.82c0.05,0,0.05-0.03,0.04-0.07l-0.92-2.61c-0.05-0.14-0.1-0.14-0.14,0
				l-0.85,2.61c-0.02,0.05,0,0.07,0.03,0.07H220.24z"/>
			<path d="M226.49,26.22c0,0.93,0,1.69,0.05,2.1c0.03,0.28,0.09,0.49,0.38,0.53c0.14,0.02,0.35,0.04,0.44,0.04
				c0.06,0,0.08,0.03,0.08,0.06c0,0.05-0.05,0.08-0.15,0.08c-0.53,0-1.14-0.03-1.19-0.03c-0.05,0-0.66,0.03-0.95,0.03
				c-0.11,0-0.15-0.02-0.15-0.08c0-0.03,0.02-0.06,0.08-0.06c0.09,0,0.2-0.02,0.29-0.04c0.19-0.04,0.24-0.25,0.28-0.53
				c0.05-0.41,0.05-1.17,0.05-2.1v-4.09l-1.43,0.02c-0.6,0.01-0.83,0.08-0.99,0.31c-0.11,0.16-0.13,0.23-0.16,0.3
				c-0.03,0.08-0.06,0.1-0.1,0.1c-0.03,0-0.05-0.03-0.05-0.09c0-0.1,0.19-0.93,0.21-1.01c0.02-0.06,0.06-0.18,0.1-0.18
				c0.07,0,0.17,0.1,0.43,0.12c0.28,0.03,0.65,0.05,0.77,0.05h3.63c0.62,0,0.88-0.1,0.96-0.1c0.05,0,0.05,0.06,0.05,0.12
				c0,0.29-0.03,0.96-0.03,1.06c0,0.09-0.03,0.13-0.07,0.13c-0.05,0-0.07-0.03-0.08-0.16l-0.01-0.11c-0.04-0.29-0.26-0.51-1.19-0.53
				l-1.22-0.02V26.22z"/>
			<path d="M231.6,24.52c0-1.51,0-1.78-0.02-2.09c-0.02-0.33-0.1-0.48-0.42-0.55c-0.08-0.02-0.24-0.03-0.33-0.03
				c-0.04,0-0.08-0.02-0.08-0.06c0-0.06,0.05-0.08,0.16-0.08c0.43,0,1.04,0.03,1.09,0.03c0.07,0,1.99,0,2.22-0.01
				c0.18-0.01,0.34-0.03,0.42-0.05c0.05-0.01,0.09-0.05,0.13-0.05c0.03,0,0.04,0.04,0.04,0.09c0,0.07-0.05,0.18-0.08,0.45
				c-0.01,0.1-0.03,0.52-0.05,0.64c-0.01,0.05-0.03,0.11-0.07,0.11c-0.06,0-0.08-0.05-0.08-0.13c0-0.07-0.01-0.23-0.06-0.35
				c-0.07-0.15-0.16-0.27-0.69-0.33c-0.17-0.02-1.22-0.03-1.33-0.03c-0.04,0-0.06,0.03-0.06,0.1v2.67c0,0.07,0.01,0.1,0.06,0.1
				c0.13,0,1.32,0,1.54-0.02c0.23-0.02,0.37-0.04,0.45-0.14c0.07-0.08,0.11-0.13,0.15-0.13c0.03,0,0.05,0.02,0.05,0.08
				c0,0.06-0.05,0.22-0.08,0.54c-0.02,0.19-0.04,0.55-0.04,0.62c0,0.08,0,0.18-0.07,0.18c-0.05,0-0.07-0.04-0.07-0.09
				c0-0.1,0-0.19-0.04-0.32c-0.04-0.14-0.13-0.3-0.5-0.34c-0.26-0.03-1.22-0.05-1.38-0.05c-0.05,0-0.07,0.03-0.07,0.07v0.85
				c0,0.33-0.01,1.45,0,1.65c0.03,0.67,0.17,0.79,1.12,0.79c0.25,0,0.68,0,0.93-0.11c0.25-0.11,0.37-0.3,0.44-0.7
				c0.02-0.11,0.04-0.15,0.09-0.15c0.06,0,0.06,0.08,0.06,0.15c0,0.08-0.08,0.74-0.13,0.94c-0.07,0.25-0.15,0.25-0.52,0.25
				c-1.46,0-2.11-0.06-2.39-0.06c-0.05,0-0.66,0.03-0.95,0.03c-0.11,0-0.15-0.02-0.15-0.08c0-0.03,0.02-0.06,0.08-0.06
				c0.09,0,0.2-0.02,0.29-0.04c0.19-0.04,0.24-0.25,0.28-0.53c0.05-0.41,0.05-1.17,0.05-2.1V24.52z"/>
		<rect x="48.79" y="18.03" width="186.83" height="1"/>
		</svg>